HIERARCHY
ROOT Hips
{
	OFFSET 0.00000 0.00000 0.00000
	CHANNELS 6 Xposition Yposition Zposition Zrotation Yrotation Xrotation 
	JOINT LHipJoint
	{
		OFFSET 0 0 0
		CHANNELS 3 Zrotation Yrotation Xrotation
		JOINT LeftUpLeg
		{
			OFFSET 1.57358 -1.76629 0.73362
			CHANNELS 3 Zrotation Yrotation Xrotation
			JOINT LeftLeg
			{
				OFFSET 2.40600 -6.61045 0.00000
				CHANNELS 3 Zrotation Yrotation Xrotation
				JOINT LeftFoot
				{
					OFFSET 2.66168 -7.31291 0.00000
					CHANNELS 3 Zrotation Yrotation Xrotation
					JOINT LeftToeBase
					{
						OFFSET 0.20870 -0.57341 2.12506
						CHANNELS 3 Zrotation Yrotation Xrotation
						End Site
						{
							OFFSET 0.00000 -0.00000 1.10557
						}
					}
				}
			}
		}
	}
	JOINT RHipJoint
	{
		OFFSET 0 0 0
		CHANNELS 3 Zrotation Yrotation Xrotation
		JOINT RightUpLeg
		{
			OFFSET -1.49299 -1.76629 0.73362
			CHANNELS 3 Zrotation Yrotation Xrotation
			JOINT RightLeg
			{
				OFFSET -2.43663 -6.69460 0.00000
				CHANNELS 3 Zrotation Yrotation Xrotation
				JOINT RightFoot
				{
					OFFSET -2.62959 -7.22474 0.00000
					CHANNELS 3 Zrotation Yrotation Xrotation
					JOINT RightToeBase
					{
						OFFSET -0.25784 -0.70841 2.21862
						CHANNELS 3 Zrotation Yrotation Xrotation
						End Site
						{
							OFFSET -0.00000 -0.00000 1.16452
						}
					}
				}
			}
		}
	}
	JOINT LowerBack
	{
		OFFSET 0 0 0
		CHANNELS 3 Zrotation Yrotation Xrotation
		JOINT Spine
		{
			OFFSET -0.00034 2.12399 -0.25450
			CHANNELS 3 Zrotation Yrotation Xrotation
			JOINT Spine1
			{
				OFFSET 0.05594 2.14379 -0.03318
				CHANNELS 3 Zrotation Yrotation Xrotation
				JOINT Neck
				{
					OFFSET 0 0 0
					CHANNELS 3 Zrotation Yrotation Xrotation
					JOINT Neck1
					{
						OFFSET -0.09835 1.62725 0.24211
						CHANNELS 3 Zrotation Yrotation Xrotation
						JOINT Head
						{
							OFFSET 0.10849 1.66041 -0.22648
							CHANNELS 3 Zrotation Yrotation Xrotation
							End Site
							{
								OFFSET 0.04385 1.68267 -0.10541
							}
						}
					}
				}
				JOINT LeftShoulder
				{
					OFFSET 0 0 0
					CHANNELS 3 Zrotation Yrotation Xrotation
					JOINT LeftArm
					{
						OFFSET 3.29108 0.79398 -0.68179
						CHANNELS 3 Zrotation Yrotation Xrotation
						JOINT LeftForeArm
						{
							OFFSET 5.15310 -0.00000 -0.00000
							CHANNELS 3 Zrotation Yrotation Xrotation
							JOINT LeftHand
							{
								OFFSET 3.75138 -0.00000 -0.00000
								CHANNELS 3 Zrotation Yrotation Xrotation
								JOINT LeftFingerBase
								{
									OFFSET 0 0 0
									CHANNELS 3 Zrotation Yrotation Xrotation
									JOINT LeftHandIndex1
									{
										OFFSET 0.52917 -0.00000 0.00000
										CHANNELS 3 Zrotation Yrotation Xrotation
										End Site
										{
											OFFSET 0.42663 -0.00000 0.00000
										}
									}
								}
								JOINT LThumb
								{
									OFFSET 0 0 0
									CHANNELS 3 Zrotation Yrotation Xrotation
									End Site
									{
										OFFSET 0.43315 -0.00000 0.43315
									}
								}
							}
						}
					}
				}
				JOINT RightShoulder
				{
					OFFSET 0 0 0
					CHANNELS 3 Zrotation Yrotation Xrotation
					JOINT RightArm
					{
						OFFSET -3.07414 1.06285 -0.44338
						CHANNELS 3 Zrotation Yrotation Xrotation
						JOINT RightForeArm
						{
							OFFSET -5.29613 -0.00000 0.00000
							CHANNELS 3 Zrotation Yrotation Xrotation
							JOINT RightHand
							{
								OFFSET -3.76144 -0.00000 -0.00000
								CHANNELS 3 Zrotation Yrotation Xrotation
								JOINT RightFingerBase
								{
									OFFSET 0 0 0
									CHANNELS 3 Zrotation Yrotation Xrotation
									JOINT RightHandIndex1
									{
										OFFSET -0.74732 -0.00000 0.00000
										CHANNELS 3 Zrotation Yrotation Xrotation
										End Site
										{
											OFFSET -0.60251 -0.00000 0.00000
										}
									}
								}
								JOINT RThumb
								{
									OFFSET 0 0 0
									CHANNELS 3 Zrotation Yrotation Xrotation
									End Site
									{
										OFFSET -0.61171 -0.00000 0.61171
									}
								}
							}
						}
					}
				}
			}
		}
	}
}
MOTION
Frames: 9
Frame Time: .0083333
-4.5593 17.0141 -1.0970 -6.4541 32.6364 -0.3783 0.0000 0.0000 0.0000 -19.7233 -11.6684 -34.6816 3.3237 11.2015 32.9625 -0.0099 2.5854 -2.9547 0.2416 3.1635 8.7342 0.0000 0.0000 0.0000 23.4557 0.8365 15.5989 -2.4320 -9.7133 28.0532 -0.1734 5.7274 11.9939 -0.8518 5.8863 -16.4549 3.8276 1.1441 7.3843 3.1882 2.0706 -1.1807 0.9252 0.9647 -5.3656 -9.1502 -3.6525 -15.3169 4.4583 -3.7506 23.2021 2.6194 -1.9825 10.2045 0.0000 -0.0000 0.0000 -92.1377 6.7772 -20.0923 5.6637 -9.7001 -0.4810 -0.0000 -0.0000 39.0306 14.9361 22.0097 5.7089 -7.1250 0.0000 -0.0000 -14.2013 52.1274 -2.5339 0.0000 -0.0000 0.0000 87.4264 -6.6927 10.9990 -22.5648 33.6095 -6.8959 0.0000 -0.0000 -0.7865 -19.7028 11.6152 -4.1239 7.1250 -0.0000 -0.0000 5.2133 -17.6945 3.3962
-4.4191 17.0281 -0.8844 -6.2507 32.5273 -0.5354 0.0000 0.0000 0.0000 -20.1313 -11.0611 -33.9362 3.4366 11.3703 33.5391 -0.0046 2.6198 -3.4267 0.3625 3.8677 10.7049 0.0000 0.0000 0.0000 23.2783 1.3141 13.9670 -3.0976 -10.8514 31.7803 -0.1964 6.5884 13.2611 -0.7075 5.3760 -14.9841 3.7541 1.2387 7.3944 3.1475 2.1734 -0.9005 0.9131 1.0224 -5.0768 -9.1155 -3.6411 -15.6866 4.3362 -3.6763 22.9855 2.5738 -1.9542 10.1884 -0.0000 0.0000 0.0000 -92.4119 6.6505 -18.7827 5.8495 -10.0109 -0.5128 -0.0000 -0.0000 38.1558 14.2001 21.3580 5.2653 -7.1250 0.0000 -0.0000 -14.6380 51.3626 -2.3363 -0.0000 0.0000 0.0000 87.4809 -6.6015 10.8229 -22.1547 33.1514 -6.6702 0.0000 -0.0000 -0.8153 -20.0198 10.9775 -3.9690 7.1250 -0.0000 -0.0000 4.9779 -18.3406 3.1707
-4.2875 17.0538 -0.6783 -6.1238 32.3302 -0.6771 0.0000 0.0000 0.0000 -20.3579 -10.3384 -33.2299 3.5474 11.5325 34.0976 0.0152 2.1389 -4.0345 0.4683 4.3893 12.1747 0.0000 0.0000 0.0000 23.3113 2.2764 12.2993 -3.8422 -11.9474 35.5462 -0.1937 7.1522 13.8098 -0.5937 4.9328 -13.7170 3.6416 1.3568 7.3465 3.1183 2.3002 -0.5937 0.9348 1.0943 -4.7300 -8.9321 -3.6386 -15.9827 4.1019 -3.6330 22.7233 2.4595 -1.9405 10.1387 0.0000 0.0000 0.0000 -92.5966 6.6147 -15.5650 6.1813 -10.5641 -0.5720 -0.0000 -0.0000 35.0640 14.2627 22.1591 5.4768 -7.1250 0.0000 -0.0000 -14.9236 52.1586 -2.6790 0.0000 0.0000 0.0000 87.4424 -6.2974 10.7832 -22.3455 33.3653 -6.7749 0.0000 -0.0000 -3.4769 -17.2188 8.0959 -2.4991 7.1250 -0.0000 -0.0000 6.9769 -21.5339 3.9579
-4.1575 17.0731 -0.4739 -5.6905 32.2370 -0.5281 0.0000 0.0000 0.0000 -20.9168 -9.7044 -32.5837 3.6280 11.6483 34.4988 0.0402 1.4147 -4.5872 0.5474 4.7398 13.1680 0.0000 0.0000 0.0000 23.0726 3.3318 10.4747 -4.6596 -12.9899 39.3308 -0.1156 7.8002 13.2813 -0.7219 5.4294 -15.1374 3.2035 1.4167 7.1700 3.0712 2.3164 -0.3397 1.1357 1.1178 -4.3795 -9.0340 -3.6420 -16.3823 4.0818 -3.5679 22.7346 2.4747 -1.9185 10.2162 0.0000 0.0000 0.0000 -92.9254 6.6088 -13.4152 6.5546 -11.1839 -0.6424 -0.0000 -0.0000 33.0288 14.1962 23.0481 5.6560 -7.1250 0.0000 -0.0000 -15.3940 53.0158 -3.0942 0.0000 0.0000 0.0000 87.3386 -6.0736 11.0145 -21.3059 32.1837 -6.2121 0.0000 -0.0000 -2.3496 -19.0362 10.8993 -3.7327 7.1250 -0.0000 -0.0000 5.6698 -18.4986 3.5956
-4.0330 17.0838 -0.2735 -4.6891 32.3806 -0.0881 0.0000 0.0000 0.0000 -22.0970 -9.1988 -31.7792 3.6498 11.6793 34.6066 0.0563 1.0985 -5.0295 0.5333 4.6793 12.9961 0.0000 0.0000 0.0000 22.2290 3.9040 8.5378 -5.5266 -13.9533 43.0507 0.0094 8.1553 11.4356 -1.0015 6.3684 -17.8571 2.2783 1.3681 7.1897 2.8718 2.1575 -0.2306 1.4640 1.0576 -4.3019 -8.9169 -3.5123 -16.5006 3.9191 -3.3648 22.6495 2.4235 -1.8321 10.1876 -0.0000 0.0000 0.0000 -93.1061 6.8560 -10.9281 6.9185 -11.7850 -0.7149 -0.0000 -0.0000 30.6391 13.6911 22.4491 5.3147 -7.1250 0.0000 -0.0000 -15.6110 52.3435 -2.8791 -0.0000 0.0000 0.0000 87.3152 -6.0624 11.1329 -19.8952 30.5158 -5.4780 0.0000 0.0000 0.3994 -22.0184 15.3418 -6.1071 7.1250 -0.0000 -0.0000 3.7691 -13.5204 2.7896
-3.9120 17.1053 -0.0748 -3.2829 32.5786 0.4893 0.0000 0.0000 0.0000 -23.6343 -8.7553 -30.6347 3.6095 11.6218 34.4069 0.0679 1.0956 -5.4540 0.5065 4.5621 12.6637 0.0000 0.0000 0.0000 20.8998 4.0836 6.5450 -6.3949 -14.8004 46.5468 0.0622 7.5682 9.2945 -0.9997 6.3627 -17.8404 1.0276 1.2922 7.4103 2.5333 1.9357 -0.1839 1.8342 0.9695 -4.4033 -8.5657 -3.3207 -16.4236 3.6145 -3.1216 22.5170 2.2897 -1.7244 10.0956 0.0000 -0.0000 0.0000 -93.0760 7.2448 -8.0261 7.3112 -12.4302 -0.7973 -0.0000 -0.0000 27.7502 12.3803 21.2608 4.5509 -7.1250 0.0000 -0.0000 -16.3448 50.9706 -2.4605 0.0000 -0.0000 0.0000 87.3627 -6.1696 11.7134 -20.0602 30.7148 -5.5621 0.0000 -0.0000 -0.5539 -20.8797 13.4361 -5.0652 7.1250 -0.0000 -0.0000 4.4516 -15.6662 3.0937
-3.7852 17.1377 0.1219 -1.8938 32.8099 1.0840 0.0000 0.0000 0.0000 -25.1272 -8.4435 -29.2981 3.5339 11.5129 34.0300 0.0842 0.7251 -5.7962 0.5506 4.7536 13.2071 0.0000 0.0000 0.0000 19.4532 4.2340 4.4752 -7.2194 -15.5139 49.6994 0.0912 7.0859 7.5366 -0.9270 6.1337 -17.1729 -0.0785 1.1835 7.6291 2.1428 1.6761 -0.1955 2.0758 0.8603 -4.5510 -8.4974 -3.1661 -16.3172 3.6609 -2.9449 22.6079 2.3212 -1.6334 10.0946 -0.0000 -0.0000 0.0000 -92.9176 7.7687 -4.7433 7.7830 -13.2006 -0.9019 -0.0000 -0.0000 24.2332 10.8318 20.1219 3.7659 -7.1250 0.0000 -0.0000 -17.3211 49.6299 -2.0317 -0.0000 -0.0000 0.0000 87.4046 -6.2476 12.4333 -20.2599 30.9542 -5.6644 0.0000 -0.0000 -1.4425 -19.8943 11.7350 -4.2095 7.1250 -0.0000 -0.0000 5.0819 -17.5525 3.3258
-3.6563 17.1576 0.3137 -0.6013 33.1574 1.5783 0.0000 0.0000 0.0000 -26.5921 -8.1696 -27.8992 3.4485 11.3879 33.5996 0.0996 0.2354 -6.0507 0.5281 4.6568 12.9323 0.0000 0.0000 0.0000 18.0054 4.2169 2.5295 -7.9730 -16.0993 52.4652 0.1078 6.6458 5.8595 -0.8284 5.8068 -16.2248 -1.0860 1.0423 7.9337 1.8831 1.3830 -0.2155 2.4033 0.7363 -4.7497 -8.6904 -3.0410 -16.0858 3.7557 -2.7605 22.6265 2.4144 -1.5556 10.0496 -0.0000 0.0000 0.0000 -92.9271 8.3167 -0.7536 8.2875 -14.0179 -1.0206 -0.0000 -0.0000 20.2883 10.9776 20.4716 3.8811 -7.1250 0.0000 -0.0000 -17.3331 49.9884 -2.1895 -0.0000 0.0000 0.0000 87.2027 -6.2365 13.0735 -20.0494 30.7018 -5.5566 0.0000 -0.0000 -1.4031 -19.5570 11.5204 -4.0582 7.1250 -0.0000 -0.0000 5.3134 -17.8061 3.4490
-3.5299 17.1692 0.5011 0.2766 33.5662 1.8581 0.0000 0.0000 0.0000 -27.6661 -7.9030 -26.6031 3.3903 11.3016 33.3038 0.1178 0.0108 -6.4852 0.4898 4.4872 12.4517 0.0000 0.0000 0.0000 17.0040 4.0221 0.6484 -8.6332 -16.5658 54.8129 0.1098 6.1648 4.2772 -0.8805 5.9821 -16.7324 -1.7641 0.8775 8.1593 1.7761 1.0915 -0.1379 2.7080 0.6065 -4.7919 -8.8691 -2.9306 -15.9593 3.7403 -2.5639 22.5250 2.4649 -1.4814 9.9789 -0.0000 0.0000 0.0000 -92.9857 8.2853 1.8389 8.5161 -14.3860 -1.0767 -0.0000 -0.0000 18.2020 11.7035 21.3907 4.3207 -7.1250 0.0000 -0.0000 -17.0482 50.9869 -2.5787 -0.0000 0.0000 0.0000 87.0077 -6.0193 13.4434 -19.6330 30.1977 -5.3455 0.0000 -0.0000 -0.5163 -18.7750 11.4962 -3.8759 7.1250 -0.0000 -0.0000 5.8610 -17.8938 3.7967
